<?xml version="1.0" encoding="UTF-8" standalone="no"?>
<svg
   xmlns:dc="http://purl.org/dc/elements/1.1/"
   xmlns:cc="http://creativecommons.org/ns#"
   xmlns:rdf="http://www.w3.org/1999/02/22-rdf-syntax-ns#"
   xmlns:svg="http://www.w3.org/2000/svg"
   xmlns="http://www.w3.org/2000/svg"
   viewBox="0 0 533.01288 666.71735"
   height="666.71735"
   width="533.01288"
   id="svg4485"
   version="1.1">
  <metadata
     id="metadata4491">
    <rdf:RDF>
      <cc:Work
         rdf:about="">
        <dc:format>image/svg+xml</dc:format>
        <dc:type
           rdf:resource="http://purl.org/dc/dcmitype/StillImage" />
        <dc:title></dc:title>
      </cc:Work>
    </rdf:RDF>
  </metadata>
  <defs
     id="defs4489" />
  <path
     id="path4495"
     d="m 240.49698,664.80104 c -2.2,-0.96872 -22.9,-10.61452 -46,-21.43513 -23.1,-10.8206 -69.6,-32.59128 -103.333332,-48.37928 -33.73334,-15.788 -63.83732,-30.41587 -66.89773,-32.50638 -7.65377,-5.22812 -13.04192,-12.03765 -18.8428396,-23.81354 l -4.92611004,-10 -0.3468,-255.77728 C -0.18978164,22.157824 -0.14554164,16.99666 2.3927984,11.258307 3.9511884,7.73531 6.7437584,4.330507 9.4062684,2.70723 13.794958,0.031534 15.426558,0.009944 213.6224,0.005 L 413.41448,0 419.6224,3.094201 c 3.70612,1.847233 7.81994,5.385721 10.20792,8.780328 l 4,5.686127 0.36776,69.886343 0.36778,69.886341 H 419.86475 405.16366 V 96.648576 c 0,-64.25258 -0.008,-64.342717 -6.32422,-67.220356 -2.17457,-0.990805 -50.38231,-1.400581 -157.40519,-1.337979 -118.71654,0.06944 -153.502392,0.449175 -150.937272,1.647671 117.021662,54.675887 156.242602,73.442628 161.126742,77.097158 3.30648,2.47405 8.00956,7.41952 10.4513,10.98993 9.06459,13.25463 8.48505,-6.59964 8.10206,277.56241 -0.32992,244.78545 -0.46321,257.49257 -2.74483,261.67157 -4.73212,8.66736 -16.89451,12.16322 -26.93527,7.74204 z M 217.61361,406.29077 c 6.08065,-5.73479 9.49453,-16.96858 8.49764,-27.96251 -1.34395,-14.82125 -11.38668,-28.99489 -20.54432,-28.99489 -12.10169,0 -21.06156,17.88021 -17.81891,35.55921 3.99992,21.80771 18.45214,32.16247 29.86559,21.39819 z m 187.55005,77.70927 v -76.00001 h 14.66666 14.66667 l -0.0521,65.66667 c -0.0409,51.44843 -0.43391,66.53275 -1.81512,69.66667 -3.67187,8.33132 -15.4582,16.57078 -23.79936,16.63739 l -3.66672,0.0293 z M 427.83032,342.6667 v -36 h -52 -52 v -24 -24 h 52 52 v -36.00001 c 0,-19.8 0.45,-35.99672 1,-35.99269 0.55,0.004 7.91858,6.45401 16.37463,14.33333 8.45604,7.87931 31.67211,29.44606 51.59126,47.9261 l 36.21664,33.60007 -19.61858,18.39993 c -22.46497,21.06952 -68.59444,63.90511 -77.71305,72.16395 -3.38202,3.06312 -6.53202,5.56932 -7,5.56932 -0.46799,0 -0.8509,-16.2 -0.8509,-36 z"
     style="fill:#543216;stroke-width:1.33333337" />
</svg>
