<?xml version="1.0" encoding="UTF-8" standalone="no"?>
<!-- Created with Inkscape (http://www.inkscape.org/) -->

<svg
   xmlns:dc="http://purl.org/dc/elements/1.1/"
   xmlns:cc="http://creativecommons.org/ns#"
   xmlns:rdf="http://www.w3.org/1999/02/22-rdf-syntax-ns#"
   xmlns:svg="http://www.w3.org/2000/svg"
   xmlns="http://www.w3.org/2000/svg"
   xmlns:sodipodi="http://sodipodi.sourceforge.net/DTD/sodipodi-0.dtd"
   xmlns:inkscape="http://www.inkscape.org/namespaces/inkscape"
   version="1.1"
   id="svg4485"
   width="1105.3334"
   height="1034.4648"
   viewBox="0 0 1105.3334 1034.4648"
   sodipodi:docname="preload_image.svg"
   inkscape:version="0.92.4 (5da689c313, 2019-01-14)">
  <metadata
     id="metadata4491">
    <rdf:RDF>
      <cc:Work
         rdf:about="">
        <dc:format>image/svg+xml</dc:format>
        <dc:type
           rdf:resource="http://purl.org/dc/dcmitype/StillImage" />
        <dc:title />
      </cc:Work>
    </rdf:RDF>
  </metadata>
  <defs
     id="defs4489" />
  <sodipodi:namedview
     pagecolor="#ffffff"
     bordercolor="#666666"
     borderopacity="1"
     objecttolerance="10"
     gridtolerance="10"
     guidetolerance="10"
     inkscape:pageopacity="0"
     inkscape:pageshadow="2"
     inkscape:window-width="1920"
     inkscape:window-height="986"
     id="namedview4487"
     showgrid="false"
     fit-margin-top="0"
     fit-margin-left="0"
     fit-margin-right="0"
     fit-margin-bottom="0"
     inkscape:zoom="0.7075"
     inkscape:cx="548.42643"
     inkscape:cy="666.41357"
     inkscape:window-x="-11"
     inkscape:window-y="-11"
     inkscape:window-maximized="1"
     inkscape:current-layer="svg4485" />
  <path
     style="fill:#ffffff;fill-opacity:1;stroke-width:1.33333337"
     d="m 545.33334,1032.5365 c -33.3092,-15.9111 -112.7865,-40.88855 -178,-55.94025 -80.2719,-18.5272 -155.81003,-29.7686 -242.66663,-36.113 -17.00136,-1.2419 -110.049,-3.9382 -120.64849,-3.4961 L 0.0364,937.15325 0.0182,528.7179 0,120.28261 l 24.66666,-0.23137 24.666671,-0.23138 0.15172,372 c 0.0834,204.6 0.23344,377.72581 0.33333,384.72401 l 0.18162,12.7239 39.66666,1.6248 c 134.785669,5.521 270.055529,28.23058 389.000029,65.30668 23.1873,7.2277 54.8563,18.3187 65.1105,22.8028 8.0148,3.5048 9.7546,3.506 17.7789,0.012 12.0418,-5.243 35.6997,-13.4799 65.1106,-22.6693 116.5553,-36.4176 245.346,-58.55518 379.19551,-65.17918 14.9575,-0.7401 32.2075,-1.3457 38.3333,-1.3457 h 11.1379 l 0.1816,-13 c 0.1,-7.15 0.2499,-180.40001 0.3333,-385.00001 l 0.1517,-372 24.6667,0.23138 24.6667,0.23137 -0.018,408.43529 -0.018,408.43535 -3.9818,-0.191 c -9.7624,-0.468 -103.49387,2.2752 -120.79157,3.5352 -151.83834,11.0606 -302.68174,43.3673 -411.19034,88.06625 -16.8247,6.9308 -17.5547,7.0516 -24,3.9728 z m -12,-101.56825 c -71.3401,-32.75488 -163.068,-60.39678 -249.2516,-75.11128 -53.45379,-9.1263 -87.41942,-12.421 -144.6183,-14.0279 -24.85898,-0.6984 -42.201319,-1.7125 -42.685609,-2.4961 -0.97035,-1.57 -1.06805,-837.0006255 -0.098,-837.9706755 2.46141,-2.46141 68.833849,-1.34832002 105.986879,1.77745 57.42773,4.83152 129.79453,17.2093805 180.66663,30.9018605 56.994,15.34017 114.8481,35.26859 155.6294,53.60803 l 13.6293,6.12913 18.1363,-8.03431 c 95.2641,-42.20156 218.8952,-72.924521 332.605,-82.6540705 36.2347,-3.10042002 102.84496,-4.20336 105.30466,-1.74365 0.9794,0.97942 0.8985,836.3990355 -0.081,837.9842355 -0.4824,0.7805 -18.15547,1.8174 -43.35227,2.5435 -45.31149,1.3057 -60.28349,2.3541 -95.20449,6.6665 -102.1633,12.6162 -209.8118,42.4574 -299.8955,83.13378 -9.1091,4.1132 -17.2091,7.4275 -18,7.3652 -0.7908,-0.062 -9.2379,-3.6946 -18.7712,-8.0717 z m -5.163,-419.5906 c 0.096,-199.22345 -0.1364,-365.12104 -0.5166,-368.66132 -0.5645,-5.25604 -1.2833,-6.66191 -3.9179,-7.6636 -1.7746,-0.67469 -6.5031,-2.72543 -10.5077,-4.55717 -32.2729,-14.76195 -98.3854,-36.258265 -151.2281,-49.171405 -67.2105,-16.42422 -125.3277,-24.89543 -202.67065,-29.54146 l -14.004,-0.84122 0.004,371.324165 0.004,371.32416 16.66667,0.82648 c 110.52388,5.48068 218.61328,26.59569 316.66668,61.86009 23.0719,8.2977 46.0673,17.1664 47.0448,18.1438 0.4031,0.4032 1.082,0.384 1.5085,-0.043 0.4266,-0.4265 0.8542,-163.77651 0.9503,-362.99996 z m 103.163,343.23302 c 94.7749,-33.99954 201.8289,-54.57935 313.3334,-60.23455 l 15.33329,-0.77767 V 422.26997 50.941475 l -14.00399,0.84122 c -62.2963,3.74218 -101.2196,8.50131 -154.004,18.83006 -69.7121,13.64112 -144.5848,36.153325 -202.6666,60.936365 -9.9195,4.23254 -10.7162,4.86845 -11.3733,9.07773 -0.5765,3.69296 -0.7051,713.18592 -0.1322,729.40002 l 0.1721,4.8738 15,-5.9597 c 8.25,-3.2779 25.5,-9.7265 38.3333,-14.3303 z"
     id="path4495"
     inkscape:connector-curvature="0" />
</svg>
