<?xml version="1.0" encoding="UTF-8" standalone="no"?>
<!-- Created with Inkscape (http://www.inkscape.org/) -->

<svg
   xmlns:dc="http://purl.org/dc/elements/1.1/"
   xmlns:cc="http://creativecommons.org/ns#"
   xmlns:rdf="http://www.w3.org/1999/02/22-rdf-syntax-ns#"
   xmlns:svg="http://www.w3.org/2000/svg"
   xmlns="http://www.w3.org/2000/svg"
   xmlns:sodipodi="http://sodipodi.sourceforge.net/DTD/sodipodi-0.dtd"
   xmlns:inkscape="http://www.inkscape.org/namespaces/inkscape"
   version="1.1"
   id="svg4485"
   width="200"
   height="200"
   viewBox="0 0 200 200"
   sodipodi:docname="vk.svg"
   inkscape:version="0.92.0 r15299">
  <metadata
     id="metadata4491">
    <rdf:RDF>
      <cc:Work
         rdf:about="">
        <dc:format>image/svg+xml</dc:format>
        <dc:type
           rdf:resource="http://purl.org/dc/dcmitype/StillImage" />
        <dc:title />
      </cc:Work>
    </rdf:RDF>
  </metadata>
  <defs
     id="defs4489" />
  <sodipodi:namedview
     pagecolor="#ffffff"
     bordercolor="#666666"
     borderopacity="1"
     objecttolerance="10"
     gridtolerance="10"
     guidetolerance="10"
     inkscape:pageopacity="0"
     inkscape:pageshadow="2"
     inkscape:window-width="1920"
     inkscape:window-height="1018"
     id="namedview4487"
     showgrid="false"
     fit-margin-top="0"
     fit-margin-left="0"
     fit-margin-right="0"
     fit-margin-bottom="0"
     inkscape:zoom="2.297195"
     inkscape:cx="-18.410723"
     inkscape:cy="55.796063"
     inkscape:window-x="-8"
     inkscape:window-y="-8"
     inkscape:window-maximized="1"
     inkscape:current-layer="svg4485" />
  <path
     style="fill:#585256;stroke-width:2.71974039"
     d="M 76.37111,192.56562 C 51.845278,179.71501 31.035031,145.57793 9.1543448,82.303479 -3.6559655,45.258698 -2.9905767,43.123251 20.982968,44.341682 l 18.601929,0.945434 9.432344,26.706014 c 9.985505,28.27222 16.024371,39.96543 20.639795,39.96543 4.158335,0 5.576867,-7.86739 5.576867,-30.930221 0,-20.219329 -2.219548,-27.596786 -9.625631,-31.994274 -2.076568,-1.232988 -1.647983,-3.134737 1.5313,-6.794926 3.206822,-3.691873 9.571748,-5.082705 23.260274,-5.082705 17.555704,0 19.098474,0.552429 22.544324,8.072482 2.97047,6.48266 3.38693,12.515266 2.11464,30.631075 -2.68246,38.194819 2.70316,46.555689 14.34929,22.276428 3.64659,-7.602155 9.8514,-22.969111 13.78848,-34.14879 l 7.15835,-20.326655 h 21.64555 c 16.33053,0 21.94196,1.104663 22.8528,4.498761 1.89889,7.075849 -4.30417,24.349407 -18.1521,50.548238 -7.02092,13.282767 -12.76526,25.536187 -12.76526,27.229827 0,1.69364 6.21693,12.58263 13.81545,24.19777 25.35642,38.76001 24.13387,46.38193 -7.43956,46.38193 h -20.36006 l -13.53323,-18.4584 c -15.19517,-20.72514 -17.39964,-20.40306 -21.48338,3.13885 l -2.37534,13.69341 -14.682738,0.62468 c -8.075499,0.34357 -17.753165,-0.98412 -21.505952,-2.95042 z"
     id="path4495"
     inkscape:connector-curvature="0" />
  <path
     style="fill:#5a3617;fill-opacity:1;stroke-width:0.43531349"
     d="m 144.16844,188.24216 c -14.25264,-19.43536 -18.55852,-24.53498 -21.29638,-25.22213 -3.88211,-0.97435 -5.55441,3.19308 -8.74731,21.79866 -0.90392,5.26729 -1.68527,9.63325 -1.73632,9.70214 -0.0511,0.0689 -4.18283,0.32731 -9.18172,0.57428 -14.438904,0.71334 -22.865433,-0.44254 -28.894081,-3.96345 C 54.643746,179.64441 37.481238,154.25242 19.957526,110.71311 13.170658,93.850493 3.9154702,66.9893 2.0369147,58.702382 0.70151592,52.811505 0.92338555,48.898418 2.6978063,47.046322 5.3378247,44.290736 9.2467675,43.975788 28.899999,44.935179 l 10.526731,0.513872 2.700992,7.652644 c 11.353989,32.168939 14.818536,41.179345 18.838195,48.993385 3.239729,6.2979 6.344807,9.9537 8.454228,9.9537 3.916955,0 5.159453,-4.45672 5.744458,-20.604839 C 75.582608,79.9056 75.112809,66.930022 74.102808,62.11767 72.820039,56.005678 70.140445,51.618166 66.204967,49.185907 c -2.33944,-1.445854 -1.982017,-3.309936 1.315683,-6.86171 1.716445,-1.848687 3.831481,-2.93358 7.542921,-3.869085 2.445543,-0.616424 5.172186,-0.745488 16.007052,-0.757686 14.356227,-0.01616 15.691897,0.162751 18.298107,2.451036 1.86036,1.633415 4.26983,6.504737 5.24583,10.605695 0.94093,3.953597 1.01891,12.96606 0.22775,26.324438 -0.65522,11.063323 -0.45607,26.188225 0.39097,29.692495 1.04132,4.30806 3.36838,6.08132 5.84823,4.45645 4.98925,-3.26908 13.61015,-22.436261 26.3237,-58.526501 l 2.99029,-8.488613 h 17.78673 c 24.9712,0 26.71066,0.456108 26.71066,7.00385 0,7.137877 -5.20732,21.540611 -14.07217,38.921724 -11.49472,22.53741 -15.92383,31.71157 -16.85543,34.91317 -0.5759,1.97917 3.02472,8.63349 13.73176,25.37775 7.22026,11.29144 10.30706,16.48958 13.02313,21.93075 7.30408,14.63248 5.95063,20.34557 -5.42835,22.91387 -2.58819,0.58417 -6.44817,0.77665 -19.17099,0.95599 l -15.9303,0.22454 z"
     id="path4490"
     inkscape:connector-curvature="0" />
</svg>
